<svg width="1160" height="760" viewBox="0 0 1160 760" fill="none" xmlns="http://www.w3.org/2000/svg">
  <defs>
    <linearGradient id="bg" x1="90" y1="30" x2="1060" y2="730" gradientUnits="userSpaceOnUse">
      <stop stop-color="#0C172C"/>
      <stop offset="1" stop-color="#101F3D"/>
    </linearGradient>
    <linearGradient id="card" x1="217" y1="148" x2="942" y2="611" gradientUnits="userSpaceOnUse">
      <stop stop-color="#17325E"/>
      <stop offset="1" stop-color="#11284F"/>
    </linearGradient>
    <linearGradient id="line" x1="337" y1="322" x2="867" y2="322" gradientUnits="userSpaceOnUse">
      <stop stop-color="#20D3AE" stop-opacity="0.3"/>
      <stop offset="0.35" stop-color="#20D3AE"/>
      <stop offset="1" stop-color="#53A5FF" stop-opacity="0.35"/>
    </linearGradient>
    <radialGradient id="blob" cx="0" cy="0" r="1" gradientUnits="userSpaceOnUse" gradientTransform="translate(863 216) rotate(131.399) scale(301.992 344.251)">
      <stop stop-color="#22C2A3" stop-opacity="0.55"/>
      <stop offset="1" stop-color="#22C2A3" stop-opacity="0"/>
    </radialGradient>
  </defs>
  <rect x="20" y="20" width="1120" height="720" rx="56" fill="url(#bg)"/>
  <rect x="72" y="72" width="1016" height="616" rx="40" fill="#0E1C35" fill-opacity="0.72"/>
  <rect x="112" y="112" width="936" height="536" rx="30" fill="url(#card)"/>
  <circle cx="862" cy="218" r="252" fill="url(#blob)"/>
  <rect x="152" y="158" width="274" height="178" rx="22" fill="#0E203E" fill-opacity="0.94" stroke="#31568F" stroke-opacity="0.5"/>
  <rect x="185" y="194" width="210" height="14" rx="7" fill="#A8D2FF" fill-opacity="0.35"/>
  <rect x="185" y="222" width="162" height="11" rx="5.5" fill="#A8D2FF" fill-opacity="0.2"/>
  <rect x="185" y="260" width="95" height="40" rx="14" fill="#22C2A3" fill-opacity="0.2" stroke="#22C2A3" stroke-opacity="0.6"/>
  <rect x="294" y="260" width="101" height="40" rx="14" fill="#4A7EE8" fill-opacity="0.2" stroke="#4A7EE8" stroke-opacity="0.6"/>
  <rect x="452" y="158" width="556" height="280" rx="22" fill="#0E203E" fill-opacity="0.75" stroke="#31568F" stroke-opacity="0.45"/>
  <path d="M511 343L567 287L630 310L694 244L758 296L822 219L887 243L949 203" stroke="url(#line)" stroke-width="9" stroke-linecap="round" stroke-linejoin="round"/>
  <circle cx="567" cy="287" r="7" fill="#22C2A3"/>
  <circle cx="694" cy="244" r="7" fill="#22C2A3"/>
  <circle cx="822" cy="219" r="7" fill="#22C2A3"/>
  <circle cx="949" cy="203" r="7" fill="#53A5FF"/>
  <rect x="152" y="370" width="380" height="234" rx="22" fill="#0E203E" fill-opacity="0.82" stroke="#31568F" stroke-opacity="0.45"/>
  <rect x="183" y="405" width="144" height="118" rx="16" fill="#132849"/>
  <rect x="343" y="405" width="156" height="20" rx="10" fill="#B7D8FF" fill-opacity="0.24"/>
  <rect x="343" y="439" width="132" height="12" rx="6" fill="#B7D8FF" fill-opacity="0.18"/>
  <rect x="343" y="463" width="120" height="12" rx="6" fill="#B7D8FF" fill-opacity="0.16"/>
  <rect x="343" y="501" width="64" height="30" rx="12" fill="#22C2A3" fill-opacity="0.18" stroke="#22C2A3" stroke-opacity="0.48"/>
  <rect x="548" y="464" width="460" height="140" rx="22" fill="#0E203E" fill-opacity="0.82" stroke="#31568F" stroke-opacity="0.45"/>
  <rect x="580" y="498" width="278" height="14" rx="7" fill="#B7D8FF" fill-opacity="0.3"/>
  <rect x="580" y="526" width="236" height="12" rx="6" fill="#B7D8FF" fill-opacity="0.2"/>
  <rect x="580" y="552" width="192" height="10" rx="5" fill="#B7D8FF" fill-opacity="0.16"/>
  <rect x="886" y="497" width="90" height="64" rx="14" fill="#4A7EE8" fill-opacity="0.22" stroke="#4A7EE8" stroke-opacity="0.6"/>
</svg>
