<svg xmlns="http://www.w3.org/2000/svg" viewBox="0 0 120 120" fill="none">
  <rect width="120" height="120" rx="20" fill="#95BF47"/>
  <path d="M33 35h54l-7 55H40z" fill="#6A993E"/>
  <path d="M41 36h36l-5.4 47H46z" fill="#95BF47"/>
  <path d="M58.4 47c-8.5 0-14.3 4.9-14.3 12.1 0 10.7 15 9.1 15 14.1 0 2-1.7 3.2-4.2 3.2-3.6 0-6.9-1.3-8.8-2.7l-2 6.2c2.6 1.7 6.4 2.8 10.5 2.8 9 0 14.9-4.5 14.9-12.1 0-11.2-15-9.6-15-14.4 0-1.7 1.7-2.9 4.4-2.9 3.1 0 5.7 1 7.4 2.1l1.9-6c-1.9-1.1-4.9-2.4-9.8-2.4z" fill="#fff"/>
</svg>
