<svg xmlns="http://www.w3.org/2000/svg" viewBox="0 0 220 120" fill="none">
  <rect width="220" height="120" rx="20" fill="#141925"/>
  <path d="M30 84V74.2c4.5 2.2 10.2 3.5 15.4 3.5 4.4 0 6.3-1.2 6.3-3.5 0-2.2-1.8-3.1-7.2-4.5-8-2-14.6-5-14.6-14.4 0-9.4 7.7-15.4 19.8-15.4 5.8 0 10.6 1.2 14.7 3.2v9.5c-4-2-8.5-3-13.1-3-4 0-6.2 1.3-6.2 3.4 0 2.1 2 2.9 7.1 4.2 8.2 2.2 14.9 5.1 14.9 14.8 0 9.7-7.6 15.4-20.4 15.4-6.2 0-12.2-1.2-16.7-3.2z" fill="#635BFF"/>
  <path d="M82 41h14v44H82zM105 41h14v5.4c3-3.8 7.4-6.4 13.5-6.4 11 0 18.4 8.5 18.4 22.5 0 14.1-7.5 22.8-18.4 22.8-5.8 0-10.2-2.2-13.5-6v20H105zM126.5 73.6c5.8 0 9.4-4.3 9.4-11.1 0-6.9-3.6-11.2-9.4-11.2-3.1 0-6.1 1.4-7.5 3.7v14.9c1.4 2.3 4.4 3.7 7.5 3.7zM161 41h14v44h-14zM180.5 41h14v5.7c3-3.9 7.6-6.7 14-6.7 9.8 0 16.5 6.6 16.5 18.2V85h-14V60.4c0-5.5-2.9-8.6-8-8.6-3.7 0-6.6 1.6-8.5 4.2V85h-14z" fill="#635BFF"/>
</svg>
