<svg xmlns="http://www.w3.org/2000/svg" viewBox="0 0 120 120" fill="none">
  <rect width="120" height="120" rx="20" fill="#25D366"/>
  <path d="M60 20c22 0 40 17.6 40 39.4 0 21.7-18 39.4-40 39.4-7.1 0-13.9-1.8-19.8-5.3L20 100l6.7-19.4C22.6 74.4 20 67 20 59.4 20 37.6 38 20 60 20z" fill="#fff" fill-opacity="0.9"/>
  <path d="M48.2 44.4c-.9 0-1.8.4-2.4 1.3-1 1.3-2.7 4.1-2.7 8 0 3.8 2.8 7.5 3.2 8 .4.5 5.6 9 13.8 12.2 6.8 2.7 8.2 2.2 9.7 2.1 1.5-.2 4.7-1.9 5.4-3.8.7-1.9.7-3.5.5-3.8-.2-.3-.8-.5-1.7-.9-.9-.5-5.4-2.6-6.2-2.9-.9-.3-1.5-.5-2.1.5-.6.9-2.4 2.9-2.9 3.5-.5.6-1 .7-1.9.2-.9-.5-3.7-1.4-7.1-4.4-2.6-2.3-4.4-5.2-4.9-6.1-.5-.9-.1-1.4.4-1.9.4-.4.9-1 1.3-1.5.4-.5.5-.9.8-1.5.3-.6.1-1.2-.1-1.7-.2-.5-2.1-5.2-2.9-7.1-.8-1.9-1.6-1.6-2.2-1.6-.6 0-1.2-.1-1.8-.1z" fill="#25D366"/>
</svg>
